%TF.GenerationSoftware,KiCad,Pcbnew,7.0.9*%
%TF.CreationDate,2024-01-11T06:03:18-08:00*%
%TF.ProjectId,genesis_s-video_simple,67656e65-7369-4735-9f73-2d766964656f,rev?*%
%TF.SameCoordinates,Original*%
%TF.FileFunction,Copper,L2,Bot*%
%TF.FilePolarity,Positive*%
%FSLAX46Y46*%
G04 Gerber Fmt 4.6, Leading zero omitted, Abs format (unit mm)*
G04 Created by KiCad (PCBNEW 7.0.9) date 2024-01-11 06:03:18*
%MOMM*%
%LPD*%
G01*
G04 APERTURE LIST*
%TA.AperFunction,ComponentPad*%
%ADD10C,1.500000*%
%TD*%
%TA.AperFunction,ComponentPad*%
%ADD11R,1.500000X1.500000*%
%TD*%
%TA.AperFunction,ComponentPad*%
%ADD12R,1.600000X1.600000*%
%TD*%
%TA.AperFunction,ComponentPad*%
%ADD13C,1.600000*%
%TD*%
%TA.AperFunction,ComponentPad*%
%ADD14O,1.600000X1.600000*%
%TD*%
%TA.AperFunction,ViaPad*%
%ADD15C,0.800000*%
%TD*%
G04 APERTURE END LIST*
D10*
%TO.P,Q1,3,C*%
%TO.N,+5V*%
X112522000Y-80772000D03*
%TO.P,Q1,2,B*%
%TO.N,Net-(J1-Pin_1)*%
X115062000Y-80772000D03*
D11*
%TO.P,Q1,1,E*%
%TO.N,Net-(Q2-E)*%
X117602000Y-80772000D03*
%TD*%
D12*
%TO.P,C1,1*%
%TO.N,Net-(J2-Pin_1)*%
X113832000Y-90424000D03*
D13*
%TO.P,C1,2*%
%TO.N,Net-(C1-Pad2)*%
X116332000Y-90424000D03*
%TD*%
%TO.P,R2,1*%
%TO.N,Net-(Q2-E)*%
X121412000Y-80772000D03*
D14*
%TO.P,R2,2*%
%TO.N,Net-(J4-Pin_1)*%
X131572000Y-80772000D03*
%TD*%
D13*
%TO.P,R1,1*%
%TO.N,Net-(C1-Pad2)*%
X121412000Y-90424000D03*
D14*
%TO.P,R1,2*%
%TO.N,Net-(J5-Pin_1)*%
X131572000Y-90424000D03*
%TD*%
D15*
%TO.N,GND*%
X128524000Y-90424000D03*
X124460000Y-90424000D03*
X110236000Y-81534000D03*
X128524000Y-80772000D03*
X124460000Y-80772000D03*
%TD*%
%TA.AperFunction,Conductor*%
%TO.N,GND*%
G36*
X137890439Y-76473685D02*
G01*
X137936194Y-76526489D01*
X137947400Y-76578000D01*
X137947400Y-93602000D01*
X137927715Y-93669039D01*
X137874911Y-93714794D01*
X137823400Y-93726000D01*
X106042000Y-93726000D01*
X105974961Y-93706315D01*
X105929206Y-93653511D01*
X105918000Y-93602000D01*
X105918000Y-91271870D01*
X112531500Y-91271870D01*
X112531501Y-91271876D01*
X112537908Y-91331483D01*
X112588202Y-91466328D01*
X112588206Y-91466335D01*
X112674452Y-91581544D01*
X112674455Y-91581547D01*
X112789664Y-91667793D01*
X112789671Y-91667797D01*
X112924517Y-91718091D01*
X112924516Y-91718091D01*
X112931444Y-91718835D01*
X112984127Y-91724500D01*
X114679872Y-91724499D01*
X114739483Y-91718091D01*
X114874331Y-91667796D01*
X114989546Y-91581546D01*
X115075796Y-91466331D01*
X115126091Y-91331483D01*
X115126092Y-91331472D01*
X115127365Y-91326088D01*
X115161933Y-91265369D01*
X115223841Y-91232978D01*
X115293433Y-91239199D01*
X115335725Y-91266912D01*
X115492858Y-91424045D01*
X115492861Y-91424047D01*
X115679266Y-91554568D01*
X115885504Y-91650739D01*
X116105308Y-91709635D01*
X116267230Y-91723801D01*
X116331998Y-91729468D01*
X116332000Y-91729468D01*
X116332002Y-91729468D01*
X116388807Y-91724498D01*
X116558692Y-91709635D01*
X116778496Y-91650739D01*
X116984734Y-91554568D01*
X117171139Y-91424047D01*
X117332047Y-91263139D01*
X117462568Y-91076734D01*
X117558739Y-90870496D01*
X117617635Y-90650692D01*
X117637468Y-90424001D01*
X120106532Y-90424001D01*
X120126364Y-90650686D01*
X120126366Y-90650697D01*
X120185258Y-90870488D01*
X120185261Y-90870497D01*
X120281431Y-91076732D01*
X120281432Y-91076734D01*
X120411954Y-91263141D01*
X120572858Y-91424045D01*
X120572861Y-91424047D01*
X120759266Y-91554568D01*
X120965504Y-91650739D01*
X121185308Y-91709635D01*
X121347230Y-91723801D01*
X121411998Y-91729468D01*
X121412000Y-91729468D01*
X121412002Y-91729468D01*
X121468807Y-91724498D01*
X121638692Y-91709635D01*
X121858496Y-91650739D01*
X122064734Y-91554568D01*
X122251139Y-91424047D01*
X122412047Y-91263139D01*
X122542568Y-91076734D01*
X122638739Y-90870496D01*
X122697635Y-90650692D01*
X122717468Y-90424001D01*
X130266532Y-90424001D01*
X130286364Y-90650686D01*
X130286366Y-90650697D01*
X130345258Y-90870488D01*
X130345261Y-90870497D01*
X130441431Y-91076732D01*
X130441432Y-91076734D01*
X130571954Y-91263141D01*
X130732858Y-91424045D01*
X130732861Y-91424047D01*
X130919266Y-91554568D01*
X131125504Y-91650739D01*
X131345308Y-91709635D01*
X131507230Y-91723801D01*
X131571998Y-91729468D01*
X131572000Y-91729468D01*
X131572002Y-91729468D01*
X131628807Y-91724498D01*
X131798692Y-91709635D01*
X132018496Y-91650739D01*
X132224734Y-91554568D01*
X132411139Y-91424047D01*
X132572047Y-91263139D01*
X132702568Y-91076734D01*
X132798739Y-90870496D01*
X132857635Y-90650692D01*
X132877468Y-90424000D01*
X132857635Y-90197308D01*
X132798739Y-89977504D01*
X132702568Y-89771266D01*
X132572047Y-89584861D01*
X132572045Y-89584858D01*
X132411141Y-89423954D01*
X132224734Y-89293432D01*
X132224732Y-89293431D01*
X132018497Y-89197261D01*
X132018488Y-89197258D01*
X131798697Y-89138366D01*
X131798693Y-89138365D01*
X131798692Y-89138365D01*
X131798691Y-89138364D01*
X131798686Y-89138364D01*
X131572002Y-89118532D01*
X131571998Y-89118532D01*
X131345313Y-89138364D01*
X131345302Y-89138366D01*
X131125511Y-89197258D01*
X131125502Y-89197261D01*
X130919267Y-89293431D01*
X130919265Y-89293432D01*
X130732858Y-89423954D01*
X130571954Y-89584858D01*
X130441432Y-89771265D01*
X130441431Y-89771267D01*
X130345261Y-89977502D01*
X130345258Y-89977511D01*
X130286366Y-90197302D01*
X130286364Y-90197313D01*
X130266532Y-90423998D01*
X130266532Y-90424001D01*
X122717468Y-90424001D01*
X122717468Y-90424000D01*
X122697635Y-90197308D01*
X122638739Y-89977504D01*
X122542568Y-89771266D01*
X122412047Y-89584861D01*
X122412045Y-89584858D01*
X122251141Y-89423954D01*
X122064734Y-89293432D01*
X122064732Y-89293431D01*
X121858497Y-89197261D01*
X121858488Y-89197258D01*
X121638697Y-89138366D01*
X121638693Y-89138365D01*
X121638692Y-89138365D01*
X121638691Y-89138364D01*
X121638686Y-89138364D01*
X121412002Y-89118532D01*
X121411998Y-89118532D01*
X121185313Y-89138364D01*
X121185302Y-89138366D01*
X120965511Y-89197258D01*
X120965502Y-89197261D01*
X120759267Y-89293431D01*
X120759265Y-89293432D01*
X120572858Y-89423954D01*
X120411954Y-89584858D01*
X120281432Y-89771265D01*
X120281431Y-89771267D01*
X120185261Y-89977502D01*
X120185258Y-89977511D01*
X120126366Y-90197302D01*
X120126364Y-90197313D01*
X120106532Y-90423998D01*
X120106532Y-90424001D01*
X117637468Y-90424001D01*
X117637468Y-90424000D01*
X117617635Y-90197308D01*
X117558739Y-89977504D01*
X117462568Y-89771266D01*
X117332047Y-89584861D01*
X117332045Y-89584858D01*
X117171141Y-89423954D01*
X116984734Y-89293432D01*
X116984732Y-89293431D01*
X116778497Y-89197261D01*
X116778488Y-89197258D01*
X116558697Y-89138366D01*
X116558693Y-89138365D01*
X116558692Y-89138365D01*
X116558691Y-89138364D01*
X116558686Y-89138364D01*
X116332002Y-89118532D01*
X116331998Y-89118532D01*
X116105313Y-89138364D01*
X116105302Y-89138366D01*
X115885511Y-89197258D01*
X115885502Y-89197261D01*
X115679267Y-89293431D01*
X115679265Y-89293432D01*
X115492862Y-89423951D01*
X115335726Y-89581087D01*
X115274403Y-89614571D01*
X115204711Y-89609587D01*
X115148778Y-89567715D01*
X115127369Y-89521923D01*
X115126091Y-89516518D01*
X115075797Y-89381671D01*
X115075793Y-89381664D01*
X114989547Y-89266455D01*
X114989544Y-89266452D01*
X114874335Y-89180206D01*
X114874328Y-89180202D01*
X114739482Y-89129908D01*
X114739483Y-89129908D01*
X114679883Y-89123501D01*
X114679881Y-89123500D01*
X114679873Y-89123500D01*
X114679864Y-89123500D01*
X112984129Y-89123500D01*
X112984123Y-89123501D01*
X112924516Y-89129908D01*
X112789671Y-89180202D01*
X112789664Y-89180206D01*
X112674455Y-89266452D01*
X112674452Y-89266455D01*
X112588206Y-89381664D01*
X112588202Y-89381671D01*
X112537908Y-89516517D01*
X112531501Y-89576116D01*
X112531500Y-89576135D01*
X112531500Y-91271870D01*
X105918000Y-91271870D01*
X105918000Y-80772002D01*
X111266723Y-80772002D01*
X111285793Y-80989975D01*
X111285793Y-80989979D01*
X111342422Y-81201322D01*
X111342424Y-81201326D01*
X111342425Y-81201330D01*
X111364382Y-81248416D01*
X111434897Y-81399638D01*
X111459998Y-81435486D01*
X111560402Y-81578877D01*
X111715123Y-81733598D01*
X111894361Y-81859102D01*
X112092670Y-81951575D01*
X112304023Y-82008207D01*
X112486926Y-82024208D01*
X112521998Y-82027277D01*
X112522000Y-82027277D01*
X112522002Y-82027277D01*
X112550254Y-82024805D01*
X112739977Y-82008207D01*
X112951330Y-81951575D01*
X113149639Y-81859102D01*
X113328877Y-81733598D01*
X113483598Y-81578877D01*
X113609102Y-81399639D01*
X113679618Y-81248414D01*
X113725790Y-81195977D01*
X113792984Y-81176825D01*
X113859865Y-81197041D01*
X113904381Y-81248414D01*
X113974898Y-81399639D01*
X114100402Y-81578877D01*
X114255123Y-81733598D01*
X114434361Y-81859102D01*
X114632670Y-81951575D01*
X114844023Y-82008207D01*
X115026926Y-82024208D01*
X115061998Y-82027277D01*
X115062000Y-82027277D01*
X115062002Y-82027277D01*
X115090254Y-82024805D01*
X115279977Y-82008207D01*
X115491330Y-81951575D01*
X115689639Y-81859102D01*
X115868877Y-81733598D01*
X116023598Y-81578877D01*
X116125928Y-81432734D01*
X116180502Y-81389112D01*
X116250000Y-81381918D01*
X116312355Y-81413441D01*
X116347769Y-81473670D01*
X116351500Y-81503858D01*
X116351500Y-81569869D01*
X116351501Y-81569876D01*
X116357908Y-81629483D01*
X116408202Y-81764328D01*
X116408206Y-81764335D01*
X116494452Y-81879544D01*
X116494455Y-81879547D01*
X116609664Y-81965793D01*
X116609671Y-81965797D01*
X116744517Y-82016091D01*
X116744516Y-82016091D01*
X116751444Y-82016835D01*
X116804127Y-82022500D01*
X118399872Y-82022499D01*
X118459483Y-82016091D01*
X118594331Y-81965796D01*
X118709546Y-81879546D01*
X118795796Y-81764331D01*
X118846091Y-81629483D01*
X118852500Y-81569873D01*
X118852500Y-80772001D01*
X120106532Y-80772001D01*
X120126364Y-80998686D01*
X120126366Y-80998697D01*
X120185258Y-81218488D01*
X120185261Y-81218497D01*
X120281431Y-81424732D01*
X120281432Y-81424734D01*
X120411954Y-81611141D01*
X120572858Y-81772045D01*
X120572861Y-81772047D01*
X120759266Y-81902568D01*
X120965504Y-81998739D01*
X120965509Y-81998740D01*
X120965511Y-81998741D01*
X121000839Y-82008207D01*
X121185308Y-82057635D01*
X121347230Y-82071801D01*
X121411998Y-82077468D01*
X121412000Y-82077468D01*
X121412002Y-82077468D01*
X121468673Y-82072509D01*
X121638692Y-82057635D01*
X121858496Y-81998739D01*
X122064734Y-81902568D01*
X122251139Y-81772047D01*
X122412047Y-81611139D01*
X122542568Y-81424734D01*
X122638739Y-81218496D01*
X122697635Y-80998692D01*
X122717468Y-80772001D01*
X130266532Y-80772001D01*
X130286364Y-80998686D01*
X130286366Y-80998697D01*
X130345258Y-81218488D01*
X130345261Y-81218497D01*
X130441431Y-81424732D01*
X130441432Y-81424734D01*
X130571954Y-81611141D01*
X130732858Y-81772045D01*
X130732861Y-81772047D01*
X130919266Y-81902568D01*
X131125504Y-81998739D01*
X131125509Y-81998740D01*
X131125511Y-81998741D01*
X131160839Y-82008207D01*
X131345308Y-82057635D01*
X131507230Y-82071801D01*
X131571998Y-82077468D01*
X131572000Y-82077468D01*
X131572002Y-82077468D01*
X131628673Y-82072509D01*
X131798692Y-82057635D01*
X132018496Y-81998739D01*
X132224734Y-81902568D01*
X132411139Y-81772047D01*
X132572047Y-81611139D01*
X132702568Y-81424734D01*
X132798739Y-81218496D01*
X132857635Y-80998692D01*
X132877468Y-80772000D01*
X132857635Y-80545308D01*
X132804488Y-80346958D01*
X132798741Y-80325511D01*
X132798738Y-80325502D01*
X132702568Y-80119266D01*
X132594637Y-79965123D01*
X132572045Y-79932858D01*
X132411141Y-79771954D01*
X132224734Y-79641432D01*
X132224732Y-79641431D01*
X132018497Y-79545261D01*
X132018488Y-79545258D01*
X131798697Y-79486366D01*
X131798693Y-79486365D01*
X131798692Y-79486365D01*
X131798691Y-79486364D01*
X131798686Y-79486364D01*
X131572002Y-79466532D01*
X131571998Y-79466532D01*
X131345313Y-79486364D01*
X131345302Y-79486366D01*
X131125511Y-79545258D01*
X131125502Y-79545261D01*
X130919267Y-79641431D01*
X130919265Y-79641432D01*
X130732858Y-79771954D01*
X130571954Y-79932858D01*
X130441432Y-80119265D01*
X130441431Y-80119267D01*
X130345261Y-80325502D01*
X130345258Y-80325511D01*
X130286366Y-80545302D01*
X130286364Y-80545313D01*
X130266532Y-80771998D01*
X130266532Y-80772001D01*
X122717468Y-80772001D01*
X122717468Y-80772000D01*
X122697635Y-80545308D01*
X122644488Y-80346958D01*
X122638741Y-80325511D01*
X122638738Y-80325502D01*
X122542568Y-80119266D01*
X122434637Y-79965123D01*
X122412045Y-79932858D01*
X122251141Y-79771954D01*
X122064734Y-79641432D01*
X122064732Y-79641431D01*
X121858497Y-79545261D01*
X121858488Y-79545258D01*
X121638697Y-79486366D01*
X121638693Y-79486365D01*
X121638692Y-79486365D01*
X121638691Y-79486364D01*
X121638686Y-79486364D01*
X121412002Y-79466532D01*
X121411998Y-79466532D01*
X121185313Y-79486364D01*
X121185302Y-79486366D01*
X120965511Y-79545258D01*
X120965502Y-79545261D01*
X120759267Y-79641431D01*
X120759265Y-79641432D01*
X120572858Y-79771954D01*
X120411954Y-79932858D01*
X120281432Y-80119265D01*
X120281431Y-80119267D01*
X120185261Y-80325502D01*
X120185258Y-80325511D01*
X120126366Y-80545302D01*
X120126364Y-80545313D01*
X120106532Y-80771998D01*
X120106532Y-80772001D01*
X118852500Y-80772001D01*
X118852499Y-79974128D01*
X118846091Y-79914517D01*
X118795796Y-79779669D01*
X118795795Y-79779668D01*
X118795793Y-79779664D01*
X118709547Y-79664455D01*
X118709544Y-79664452D01*
X118594335Y-79578206D01*
X118594328Y-79578202D01*
X118459482Y-79527908D01*
X118459483Y-79527908D01*
X118399883Y-79521501D01*
X118399881Y-79521500D01*
X118399873Y-79521500D01*
X118399864Y-79521500D01*
X116804129Y-79521500D01*
X116804123Y-79521501D01*
X116744516Y-79527908D01*
X116609671Y-79578202D01*
X116609664Y-79578206D01*
X116494455Y-79664452D01*
X116494452Y-79664455D01*
X116408206Y-79779664D01*
X116408202Y-79779671D01*
X116357908Y-79914517D01*
X116352468Y-79965121D01*
X116351501Y-79974123D01*
X116351500Y-79974135D01*
X116351500Y-80040138D01*
X116331815Y-80107177D01*
X116279011Y-80152932D01*
X116209853Y-80162876D01*
X116146297Y-80133851D01*
X116125925Y-80111261D01*
X116023599Y-79965124D01*
X115972991Y-79914516D01*
X115868877Y-79810402D01*
X115689639Y-79684898D01*
X115689640Y-79684898D01*
X115689638Y-79684897D01*
X115590484Y-79638661D01*
X115491330Y-79592425D01*
X115491326Y-79592424D01*
X115491322Y-79592422D01*
X115279977Y-79535793D01*
X115062002Y-79516723D01*
X115061998Y-79516723D01*
X114934151Y-79527908D01*
X114844023Y-79535793D01*
X114844020Y-79535793D01*
X114632677Y-79592422D01*
X114632668Y-79592426D01*
X114434361Y-79684898D01*
X114434357Y-79684900D01*
X114255121Y-79810402D01*
X114100402Y-79965121D01*
X113974900Y-80144357D01*
X113974898Y-80144361D01*
X113904382Y-80295583D01*
X113858209Y-80348022D01*
X113791016Y-80367174D01*
X113724135Y-80346958D01*
X113679618Y-80295583D01*
X113613098Y-80152932D01*
X113609102Y-80144362D01*
X113609100Y-80144359D01*
X113609099Y-80144357D01*
X113483599Y-79965124D01*
X113432991Y-79914516D01*
X113328877Y-79810402D01*
X113149639Y-79684898D01*
X113149640Y-79684898D01*
X113149638Y-79684897D01*
X113050484Y-79638661D01*
X112951330Y-79592425D01*
X112951326Y-79592424D01*
X112951322Y-79592422D01*
X112739977Y-79535793D01*
X112522002Y-79516723D01*
X112521998Y-79516723D01*
X112394151Y-79527908D01*
X112304023Y-79535793D01*
X112304020Y-79535793D01*
X112092677Y-79592422D01*
X112092668Y-79592426D01*
X111894361Y-79684898D01*
X111894357Y-79684900D01*
X111715121Y-79810402D01*
X111560402Y-79965121D01*
X111434900Y-80144357D01*
X111434898Y-80144361D01*
X111342426Y-80342668D01*
X111342422Y-80342677D01*
X111285793Y-80554020D01*
X111285793Y-80554024D01*
X111266723Y-80771997D01*
X111266723Y-80772002D01*
X105918000Y-80772002D01*
X105918000Y-76578000D01*
X105937685Y-76510961D01*
X105990489Y-76465206D01*
X106042000Y-76454000D01*
X137823400Y-76454000D01*
X137890439Y-76473685D01*
G37*
%TD.AperFunction*%
%TD*%
M02*
