%TF.GenerationSoftware,KiCad,Pcbnew,7.0.9*%
%TF.CreationDate,2024-01-11T06:03:18-08:00*%
%TF.ProjectId,genesis_s-video_simple,67656e65-7369-4735-9f73-2d766964656f,rev?*%
%TF.SameCoordinates,Original*%
%TF.FileFunction,Legend,Bot*%
%TF.FilePolarity,Positive*%
%FSLAX46Y46*%
G04 Gerber Fmt 4.6, Leading zero omitted, Abs format (unit mm)*
G04 Created by KiCad (PCBNEW 7.0.9) date 2024-01-11 06:03:18*
%MOMM*%
%LPD*%
G01*
G04 APERTURE LIST*
%ADD10C,0.150000*%
G04 APERTURE END LIST*
D10*
X124224714Y-86236342D02*
X124224714Y-86617295D01*
X124491381Y-85817295D02*
X124224714Y-86236342D01*
X124224714Y-86236342D02*
X123958048Y-85817295D01*
X123081857Y-86198247D02*
X122472334Y-86198247D01*
X122472334Y-86426819D02*
X123081857Y-86426819D01*
X121100905Y-86617295D02*
X121481857Y-86617295D01*
X121481857Y-86617295D02*
X121481857Y-85817295D01*
X120491381Y-86083961D02*
X120491381Y-86617295D01*
X120834238Y-86083961D02*
X120834238Y-86503009D01*
X120834238Y-86503009D02*
X120796143Y-86579200D01*
X120796143Y-86579200D02*
X120719953Y-86617295D01*
X120719953Y-86617295D02*
X120605667Y-86617295D01*
X120605667Y-86617295D02*
X120529476Y-86579200D01*
X120529476Y-86579200D02*
X120491381Y-86541104D01*
X120110428Y-86617295D02*
X120110428Y-86083961D01*
X120110428Y-86160152D02*
X120072333Y-86122057D01*
X120072333Y-86122057D02*
X119996143Y-86083961D01*
X119996143Y-86083961D02*
X119881857Y-86083961D01*
X119881857Y-86083961D02*
X119805666Y-86122057D01*
X119805666Y-86122057D02*
X119767571Y-86198247D01*
X119767571Y-86198247D02*
X119767571Y-86617295D01*
X119767571Y-86198247D02*
X119729476Y-86122057D01*
X119729476Y-86122057D02*
X119653285Y-86083961D01*
X119653285Y-86083961D02*
X119539000Y-86083961D01*
X119539000Y-86083961D02*
X119462809Y-86122057D01*
X119462809Y-86122057D02*
X119424714Y-86198247D01*
X119424714Y-86198247D02*
X119424714Y-86617295D01*
X118700904Y-86617295D02*
X118700904Y-86198247D01*
X118700904Y-86198247D02*
X118738999Y-86122057D01*
X118738999Y-86122057D02*
X118815190Y-86083961D01*
X118815190Y-86083961D02*
X118967571Y-86083961D01*
X118967571Y-86083961D02*
X119043761Y-86122057D01*
X118700904Y-86579200D02*
X118777095Y-86617295D01*
X118777095Y-86617295D02*
X118967571Y-86617295D01*
X118967571Y-86617295D02*
X119043761Y-86579200D01*
X119043761Y-86579200D02*
X119081857Y-86503009D01*
X119081857Y-86503009D02*
X119081857Y-86426819D01*
X119081857Y-86426819D02*
X119043761Y-86350628D01*
X119043761Y-86350628D02*
X118967571Y-86312533D01*
X118967571Y-86312533D02*
X118777095Y-86312533D01*
X118777095Y-86312533D02*
X118700904Y-86274438D01*
X124662809Y-87829104D02*
X124700905Y-87867200D01*
X124700905Y-87867200D02*
X124815190Y-87905295D01*
X124815190Y-87905295D02*
X124891381Y-87905295D01*
X124891381Y-87905295D02*
X125005667Y-87867200D01*
X125005667Y-87867200D02*
X125081857Y-87791009D01*
X125081857Y-87791009D02*
X125119952Y-87714819D01*
X125119952Y-87714819D02*
X125158048Y-87562438D01*
X125158048Y-87562438D02*
X125158048Y-87448152D01*
X125158048Y-87448152D02*
X125119952Y-87295771D01*
X125119952Y-87295771D02*
X125081857Y-87219580D01*
X125081857Y-87219580D02*
X125005667Y-87143390D01*
X125005667Y-87143390D02*
X124891381Y-87105295D01*
X124891381Y-87105295D02*
X124815190Y-87105295D01*
X124815190Y-87105295D02*
X124700905Y-87143390D01*
X124700905Y-87143390D02*
X124662809Y-87181485D01*
X123710428Y-87486247D02*
X123100905Y-87486247D01*
X123100905Y-87714819D02*
X123710428Y-87714819D01*
X121653285Y-87829104D02*
X121691381Y-87867200D01*
X121691381Y-87867200D02*
X121805666Y-87905295D01*
X121805666Y-87905295D02*
X121881857Y-87905295D01*
X121881857Y-87905295D02*
X121996143Y-87867200D01*
X121996143Y-87867200D02*
X122072333Y-87791009D01*
X122072333Y-87791009D02*
X122110428Y-87714819D01*
X122110428Y-87714819D02*
X122148524Y-87562438D01*
X122148524Y-87562438D02*
X122148524Y-87448152D01*
X122148524Y-87448152D02*
X122110428Y-87295771D01*
X122110428Y-87295771D02*
X122072333Y-87219580D01*
X122072333Y-87219580D02*
X121996143Y-87143390D01*
X121996143Y-87143390D02*
X121881857Y-87105295D01*
X121881857Y-87105295D02*
X121805666Y-87105295D01*
X121805666Y-87105295D02*
X121691381Y-87143390D01*
X121691381Y-87143390D02*
X121653285Y-87181485D01*
X121310428Y-87905295D02*
X121310428Y-87105295D01*
X120967571Y-87905295D02*
X120967571Y-87486247D01*
X120967571Y-87486247D02*
X121005666Y-87410057D01*
X121005666Y-87410057D02*
X121081857Y-87371961D01*
X121081857Y-87371961D02*
X121196143Y-87371961D01*
X121196143Y-87371961D02*
X121272333Y-87410057D01*
X121272333Y-87410057D02*
X121310428Y-87448152D01*
X120586618Y-87905295D02*
X120586618Y-87371961D01*
X120586618Y-87524342D02*
X120548523Y-87448152D01*
X120548523Y-87448152D02*
X120510428Y-87410057D01*
X120510428Y-87410057D02*
X120434237Y-87371961D01*
X120434237Y-87371961D02*
X120358047Y-87371961D01*
X119977095Y-87905295D02*
X120053285Y-87867200D01*
X120053285Y-87867200D02*
X120091380Y-87829104D01*
X120091380Y-87829104D02*
X120129476Y-87752914D01*
X120129476Y-87752914D02*
X120129476Y-87524342D01*
X120129476Y-87524342D02*
X120091380Y-87448152D01*
X120091380Y-87448152D02*
X120053285Y-87410057D01*
X120053285Y-87410057D02*
X119977095Y-87371961D01*
X119977095Y-87371961D02*
X119862809Y-87371961D01*
X119862809Y-87371961D02*
X119786618Y-87410057D01*
X119786618Y-87410057D02*
X119748523Y-87448152D01*
X119748523Y-87448152D02*
X119710428Y-87524342D01*
X119710428Y-87524342D02*
X119710428Y-87752914D01*
X119710428Y-87752914D02*
X119748523Y-87829104D01*
X119748523Y-87829104D02*
X119786618Y-87867200D01*
X119786618Y-87867200D02*
X119862809Y-87905295D01*
X119862809Y-87905295D02*
X119977095Y-87905295D01*
X119367570Y-87905295D02*
X119367570Y-87371961D01*
X119367570Y-87448152D02*
X119329475Y-87410057D01*
X119329475Y-87410057D02*
X119253285Y-87371961D01*
X119253285Y-87371961D02*
X119138999Y-87371961D01*
X119138999Y-87371961D02*
X119062808Y-87410057D01*
X119062808Y-87410057D02*
X119024713Y-87486247D01*
X119024713Y-87486247D02*
X119024713Y-87905295D01*
X119024713Y-87486247D02*
X118986618Y-87410057D01*
X118986618Y-87410057D02*
X118910427Y-87371961D01*
X118910427Y-87371961D02*
X118796142Y-87371961D01*
X118796142Y-87371961D02*
X118719951Y-87410057D01*
X118719951Y-87410057D02*
X118681856Y-87486247D01*
X118681856Y-87486247D02*
X118681856Y-87905295D01*
X117958046Y-87905295D02*
X117958046Y-87486247D01*
X117958046Y-87486247D02*
X117996141Y-87410057D01*
X117996141Y-87410057D02*
X118072332Y-87371961D01*
X118072332Y-87371961D02*
X118224713Y-87371961D01*
X118224713Y-87371961D02*
X118300903Y-87410057D01*
X117958046Y-87867200D02*
X118034237Y-87905295D01*
X118034237Y-87905295D02*
X118224713Y-87905295D01*
X118224713Y-87905295D02*
X118300903Y-87867200D01*
X118300903Y-87867200D02*
X118338999Y-87791009D01*
X118338999Y-87791009D02*
X118338999Y-87714819D01*
X118338999Y-87714819D02*
X118300903Y-87638628D01*
X118300903Y-87638628D02*
X118224713Y-87600533D01*
X118224713Y-87600533D02*
X118034237Y-87600533D01*
X118034237Y-87600533D02*
X117958046Y-87562438D01*
X136769268Y-92312295D02*
X136769268Y-92883723D01*
X136769268Y-92883723D02*
X136807363Y-92998009D01*
X136807363Y-92998009D02*
X136883554Y-93074200D01*
X136883554Y-93074200D02*
X136997839Y-93112295D01*
X136997839Y-93112295D02*
X137074030Y-93112295D01*
X136007363Y-93112295D02*
X136388315Y-93112295D01*
X136388315Y-93112295D02*
X136388315Y-92312295D01*
X135283553Y-93036104D02*
X135321649Y-93074200D01*
X135321649Y-93074200D02*
X135435934Y-93112295D01*
X135435934Y-93112295D02*
X135512125Y-93112295D01*
X135512125Y-93112295D02*
X135626411Y-93074200D01*
X135626411Y-93074200D02*
X135702601Y-92998009D01*
X135702601Y-92998009D02*
X135740696Y-92921819D01*
X135740696Y-92921819D02*
X135778792Y-92769438D01*
X135778792Y-92769438D02*
X135778792Y-92655152D01*
X135778792Y-92655152D02*
X135740696Y-92502771D01*
X135740696Y-92502771D02*
X135702601Y-92426580D01*
X135702601Y-92426580D02*
X135626411Y-92350390D01*
X135626411Y-92350390D02*
X135512125Y-92312295D01*
X135512125Y-92312295D02*
X135435934Y-92312295D01*
X135435934Y-92312295D02*
X135321649Y-92350390D01*
X135321649Y-92350390D02*
X135283553Y-92388485D01*
X134712125Y-92312295D02*
X134712125Y-92883723D01*
X134712125Y-92883723D02*
X134750220Y-92998009D01*
X134750220Y-92998009D02*
X134826411Y-93074200D01*
X134826411Y-93074200D02*
X134940696Y-93112295D01*
X134940696Y-93112295D02*
X135016887Y-93112295D01*
X133950220Y-93112295D02*
X134331172Y-93112295D01*
X134331172Y-93112295D02*
X134331172Y-92312295D01*
X133226410Y-93036104D02*
X133264506Y-93074200D01*
X133264506Y-93074200D02*
X133378791Y-93112295D01*
X133378791Y-93112295D02*
X133454982Y-93112295D01*
X133454982Y-93112295D02*
X133569268Y-93074200D01*
X133569268Y-93074200D02*
X133645458Y-92998009D01*
X133645458Y-92998009D02*
X133683553Y-92921819D01*
X133683553Y-92921819D02*
X133721649Y-92769438D01*
X133721649Y-92769438D02*
X133721649Y-92655152D01*
X133721649Y-92655152D02*
X133683553Y-92502771D01*
X133683553Y-92502771D02*
X133645458Y-92426580D01*
X133645458Y-92426580D02*
X133569268Y-92350390D01*
X133569268Y-92350390D02*
X133454982Y-92312295D01*
X133454982Y-92312295D02*
X133378791Y-92312295D01*
X133378791Y-92312295D02*
X133264506Y-92350390D01*
X133264506Y-92350390D02*
X133226410Y-92388485D01*
X132654982Y-92312295D02*
X132654982Y-92883723D01*
X132654982Y-92883723D02*
X132693077Y-92998009D01*
X132693077Y-92998009D02*
X132769268Y-93074200D01*
X132769268Y-93074200D02*
X132883553Y-93112295D01*
X132883553Y-93112295D02*
X132959744Y-93112295D01*
X131893077Y-93112295D02*
X132274029Y-93112295D01*
X132274029Y-93112295D02*
X132274029Y-92312295D01*
X131169267Y-93036104D02*
X131207363Y-93074200D01*
X131207363Y-93074200D02*
X131321648Y-93112295D01*
X131321648Y-93112295D02*
X131397839Y-93112295D01*
X131397839Y-93112295D02*
X131512125Y-93074200D01*
X131512125Y-93074200D02*
X131588315Y-92998009D01*
X131588315Y-92998009D02*
X131626410Y-92921819D01*
X131626410Y-92921819D02*
X131664506Y-92769438D01*
X131664506Y-92769438D02*
X131664506Y-92655152D01*
X131664506Y-92655152D02*
X131626410Y-92502771D01*
X131626410Y-92502771D02*
X131588315Y-92426580D01*
X131588315Y-92426580D02*
X131512125Y-92350390D01*
X131512125Y-92350390D02*
X131397839Y-92312295D01*
X131397839Y-92312295D02*
X131321648Y-92312295D01*
X131321648Y-92312295D02*
X131207363Y-92350390D01*
X131207363Y-92350390D02*
X131169267Y-92388485D01*
X130597839Y-92312295D02*
X130597839Y-92883723D01*
X130597839Y-92883723D02*
X130635934Y-92998009D01*
X130635934Y-92998009D02*
X130712125Y-93074200D01*
X130712125Y-93074200D02*
X130826410Y-93112295D01*
X130826410Y-93112295D02*
X130902601Y-93112295D01*
X129835934Y-93112295D02*
X130216886Y-93112295D01*
X130216886Y-93112295D02*
X130216886Y-92312295D01*
X129112124Y-93036104D02*
X129150220Y-93074200D01*
X129150220Y-93074200D02*
X129264505Y-93112295D01*
X129264505Y-93112295D02*
X129340696Y-93112295D01*
X129340696Y-93112295D02*
X129454982Y-93074200D01*
X129454982Y-93074200D02*
X129531172Y-92998009D01*
X129531172Y-92998009D02*
X129569267Y-92921819D01*
X129569267Y-92921819D02*
X129607363Y-92769438D01*
X129607363Y-92769438D02*
X129607363Y-92655152D01*
X129607363Y-92655152D02*
X129569267Y-92502771D01*
X129569267Y-92502771D02*
X129531172Y-92426580D01*
X129531172Y-92426580D02*
X129454982Y-92350390D01*
X129454982Y-92350390D02*
X129340696Y-92312295D01*
X129340696Y-92312295D02*
X129264505Y-92312295D01*
X129264505Y-92312295D02*
X129150220Y-92350390D01*
X129150220Y-92350390D02*
X129112124Y-92388485D01*
X128910429Y-83569295D02*
X128910429Y-82769295D01*
X128910429Y-82769295D02*
X128643763Y-83340723D01*
X128643763Y-83340723D02*
X128377096Y-82769295D01*
X128377096Y-82769295D02*
X128377096Y-83569295D01*
X127881858Y-83569295D02*
X127958048Y-83531200D01*
X127958048Y-83531200D02*
X127996143Y-83493104D01*
X127996143Y-83493104D02*
X128034239Y-83416914D01*
X128034239Y-83416914D02*
X128034239Y-83188342D01*
X128034239Y-83188342D02*
X127996143Y-83112152D01*
X127996143Y-83112152D02*
X127958048Y-83074057D01*
X127958048Y-83074057D02*
X127881858Y-83035961D01*
X127881858Y-83035961D02*
X127767572Y-83035961D01*
X127767572Y-83035961D02*
X127691381Y-83074057D01*
X127691381Y-83074057D02*
X127653286Y-83112152D01*
X127653286Y-83112152D02*
X127615191Y-83188342D01*
X127615191Y-83188342D02*
X127615191Y-83416914D01*
X127615191Y-83416914D02*
X127653286Y-83493104D01*
X127653286Y-83493104D02*
X127691381Y-83531200D01*
X127691381Y-83531200D02*
X127767572Y-83569295D01*
X127767572Y-83569295D02*
X127881858Y-83569295D01*
X126929476Y-83569295D02*
X126929476Y-82769295D01*
X126929476Y-83531200D02*
X127005667Y-83569295D01*
X127005667Y-83569295D02*
X127158048Y-83569295D01*
X127158048Y-83569295D02*
X127234238Y-83531200D01*
X127234238Y-83531200D02*
X127272333Y-83493104D01*
X127272333Y-83493104D02*
X127310429Y-83416914D01*
X127310429Y-83416914D02*
X127310429Y-83188342D01*
X127310429Y-83188342D02*
X127272333Y-83112152D01*
X127272333Y-83112152D02*
X127234238Y-83074057D01*
X127234238Y-83074057D02*
X127158048Y-83035961D01*
X127158048Y-83035961D02*
X127005667Y-83035961D01*
X127005667Y-83035961D02*
X126929476Y-83074057D01*
X126243761Y-83531200D02*
X126319952Y-83569295D01*
X126319952Y-83569295D02*
X126472333Y-83569295D01*
X126472333Y-83569295D02*
X126548523Y-83531200D01*
X126548523Y-83531200D02*
X126586619Y-83455009D01*
X126586619Y-83455009D02*
X126586619Y-83150247D01*
X126586619Y-83150247D02*
X126548523Y-83074057D01*
X126548523Y-83074057D02*
X126472333Y-83035961D01*
X126472333Y-83035961D02*
X126319952Y-83035961D01*
X126319952Y-83035961D02*
X126243761Y-83074057D01*
X126243761Y-83074057D02*
X126205666Y-83150247D01*
X126205666Y-83150247D02*
X126205666Y-83226438D01*
X126205666Y-83226438D02*
X126586619Y-83302628D01*
X125748524Y-83569295D02*
X125824714Y-83531200D01*
X125824714Y-83531200D02*
X125862809Y-83455009D01*
X125862809Y-83455009D02*
X125862809Y-82769295D01*
X124415190Y-83569295D02*
X124872333Y-83569295D01*
X124643761Y-83569295D02*
X124643761Y-82769295D01*
X124643761Y-82769295D02*
X124719952Y-82883580D01*
X124719952Y-82883580D02*
X124796142Y-82959771D01*
X124796142Y-82959771D02*
X124872333Y-82997866D01*
X123462808Y-83569295D02*
X123462808Y-82769295D01*
X123462808Y-82769295D02*
X123196142Y-83340723D01*
X123196142Y-83340723D02*
X122929475Y-82769295D01*
X122929475Y-82769295D02*
X122929475Y-83569295D01*
X122548522Y-83569295D02*
X122548522Y-82769295D01*
X122548522Y-82769295D02*
X122358046Y-82769295D01*
X122358046Y-82769295D02*
X122243760Y-82807390D01*
X122243760Y-82807390D02*
X122167570Y-82883580D01*
X122167570Y-82883580D02*
X122129475Y-82959771D01*
X122129475Y-82959771D02*
X122091379Y-83112152D01*
X122091379Y-83112152D02*
X122091379Y-83226438D01*
X122091379Y-83226438D02*
X122129475Y-83378819D01*
X122129475Y-83378819D02*
X122167570Y-83455009D01*
X122167570Y-83455009D02*
X122243760Y-83531200D01*
X122243760Y-83531200D02*
X122358046Y-83569295D01*
X122358046Y-83569295D02*
X122548522Y-83569295D01*
X121177094Y-82731200D02*
X121862808Y-83759771D01*
X120948523Y-83531200D02*
X120834237Y-83569295D01*
X120834237Y-83569295D02*
X120643761Y-83569295D01*
X120643761Y-83569295D02*
X120567570Y-83531200D01*
X120567570Y-83531200D02*
X120529475Y-83493104D01*
X120529475Y-83493104D02*
X120491380Y-83416914D01*
X120491380Y-83416914D02*
X120491380Y-83340723D01*
X120491380Y-83340723D02*
X120529475Y-83264533D01*
X120529475Y-83264533D02*
X120567570Y-83226438D01*
X120567570Y-83226438D02*
X120643761Y-83188342D01*
X120643761Y-83188342D02*
X120796142Y-83150247D01*
X120796142Y-83150247D02*
X120872332Y-83112152D01*
X120872332Y-83112152D02*
X120910427Y-83074057D01*
X120910427Y-83074057D02*
X120948523Y-82997866D01*
X120948523Y-82997866D02*
X120948523Y-82921676D01*
X120948523Y-82921676D02*
X120910427Y-82845485D01*
X120910427Y-82845485D02*
X120872332Y-82807390D01*
X120872332Y-82807390D02*
X120796142Y-82769295D01*
X120796142Y-82769295D02*
X120605665Y-82769295D01*
X120605665Y-82769295D02*
X120491380Y-82807390D01*
X119729475Y-82807390D02*
X119805665Y-82769295D01*
X119805665Y-82769295D02*
X119919951Y-82769295D01*
X119919951Y-82769295D02*
X120034237Y-82807390D01*
X120034237Y-82807390D02*
X120110427Y-82883580D01*
X120110427Y-82883580D02*
X120148522Y-82959771D01*
X120148522Y-82959771D02*
X120186618Y-83112152D01*
X120186618Y-83112152D02*
X120186618Y-83226438D01*
X120186618Y-83226438D02*
X120148522Y-83378819D01*
X120148522Y-83378819D02*
X120110427Y-83455009D01*
X120110427Y-83455009D02*
X120034237Y-83531200D01*
X120034237Y-83531200D02*
X119919951Y-83569295D01*
X119919951Y-83569295D02*
X119843760Y-83569295D01*
X119843760Y-83569295D02*
X119729475Y-83531200D01*
X119729475Y-83531200D02*
X119691379Y-83493104D01*
X119691379Y-83493104D02*
X119691379Y-83226438D01*
X119691379Y-83226438D02*
X119843760Y-83226438D01*
X118777094Y-83531200D02*
X118662808Y-83569295D01*
X118662808Y-83569295D02*
X118472332Y-83569295D01*
X118472332Y-83569295D02*
X118396141Y-83531200D01*
X118396141Y-83531200D02*
X118358046Y-83493104D01*
X118358046Y-83493104D02*
X118319951Y-83416914D01*
X118319951Y-83416914D02*
X118319951Y-83340723D01*
X118319951Y-83340723D02*
X118358046Y-83264533D01*
X118358046Y-83264533D02*
X118396141Y-83226438D01*
X118396141Y-83226438D02*
X118472332Y-83188342D01*
X118472332Y-83188342D02*
X118624713Y-83150247D01*
X118624713Y-83150247D02*
X118700903Y-83112152D01*
X118700903Y-83112152D02*
X118738998Y-83074057D01*
X118738998Y-83074057D02*
X118777094Y-82997866D01*
X118777094Y-82997866D02*
X118777094Y-82921676D01*
X118777094Y-82921676D02*
X118738998Y-82845485D01*
X118738998Y-82845485D02*
X118700903Y-82807390D01*
X118700903Y-82807390D02*
X118624713Y-82769295D01*
X118624713Y-82769295D02*
X118434236Y-82769295D01*
X118434236Y-82769295D02*
X118319951Y-82807390D01*
X117977093Y-83264533D02*
X117367570Y-83264533D01*
X117100903Y-82769295D02*
X116834236Y-83569295D01*
X116834236Y-83569295D02*
X116567570Y-82769295D01*
X116300903Y-83569295D02*
X116300903Y-83035961D01*
X116300903Y-82769295D02*
X116338999Y-82807390D01*
X116338999Y-82807390D02*
X116300903Y-82845485D01*
X116300903Y-82845485D02*
X116262808Y-82807390D01*
X116262808Y-82807390D02*
X116300903Y-82769295D01*
X116300903Y-82769295D02*
X116300903Y-82845485D01*
X115577094Y-83569295D02*
X115577094Y-82769295D01*
X115577094Y-83531200D02*
X115653285Y-83569295D01*
X115653285Y-83569295D02*
X115805666Y-83569295D01*
X115805666Y-83569295D02*
X115881856Y-83531200D01*
X115881856Y-83531200D02*
X115919951Y-83493104D01*
X115919951Y-83493104D02*
X115958047Y-83416914D01*
X115958047Y-83416914D02*
X115958047Y-83188342D01*
X115958047Y-83188342D02*
X115919951Y-83112152D01*
X115919951Y-83112152D02*
X115881856Y-83074057D01*
X115881856Y-83074057D02*
X115805666Y-83035961D01*
X115805666Y-83035961D02*
X115653285Y-83035961D01*
X115653285Y-83035961D02*
X115577094Y-83074057D01*
X114891379Y-83531200D02*
X114967570Y-83569295D01*
X114967570Y-83569295D02*
X115119951Y-83569295D01*
X115119951Y-83569295D02*
X115196141Y-83531200D01*
X115196141Y-83531200D02*
X115234237Y-83455009D01*
X115234237Y-83455009D02*
X115234237Y-83150247D01*
X115234237Y-83150247D02*
X115196141Y-83074057D01*
X115196141Y-83074057D02*
X115119951Y-83035961D01*
X115119951Y-83035961D02*
X114967570Y-83035961D01*
X114967570Y-83035961D02*
X114891379Y-83074057D01*
X114891379Y-83074057D02*
X114853284Y-83150247D01*
X114853284Y-83150247D02*
X114853284Y-83226438D01*
X114853284Y-83226438D02*
X115234237Y-83302628D01*
X114396142Y-83569295D02*
X114472332Y-83531200D01*
X114472332Y-83531200D02*
X114510427Y-83493104D01*
X114510427Y-83493104D02*
X114548523Y-83416914D01*
X114548523Y-83416914D02*
X114548523Y-83188342D01*
X114548523Y-83188342D02*
X114510427Y-83112152D01*
X114510427Y-83112152D02*
X114472332Y-83074057D01*
X114472332Y-83074057D02*
X114396142Y-83035961D01*
X114396142Y-83035961D02*
X114281856Y-83035961D01*
X114281856Y-83035961D02*
X114205665Y-83074057D01*
X114205665Y-83074057D02*
X114167570Y-83112152D01*
X114167570Y-83112152D02*
X114129475Y-83188342D01*
X114129475Y-83188342D02*
X114129475Y-83416914D01*
X114129475Y-83416914D02*
X114167570Y-83493104D01*
X114167570Y-83493104D02*
X114205665Y-83531200D01*
X114205665Y-83531200D02*
X114281856Y-83569295D01*
X114281856Y-83569295D02*
X114396142Y-83569295D01*
X125729477Y-84438247D02*
X125615191Y-84476342D01*
X125615191Y-84476342D02*
X125577096Y-84514438D01*
X125577096Y-84514438D02*
X125539000Y-84590628D01*
X125539000Y-84590628D02*
X125539000Y-84704914D01*
X125539000Y-84704914D02*
X125577096Y-84781104D01*
X125577096Y-84781104D02*
X125615191Y-84819200D01*
X125615191Y-84819200D02*
X125691381Y-84857295D01*
X125691381Y-84857295D02*
X125996143Y-84857295D01*
X125996143Y-84857295D02*
X125996143Y-84057295D01*
X125996143Y-84057295D02*
X125729477Y-84057295D01*
X125729477Y-84057295D02*
X125653286Y-84095390D01*
X125653286Y-84095390D02*
X125615191Y-84133485D01*
X125615191Y-84133485D02*
X125577096Y-84209676D01*
X125577096Y-84209676D02*
X125577096Y-84285866D01*
X125577096Y-84285866D02*
X125615191Y-84362057D01*
X125615191Y-84362057D02*
X125653286Y-84400152D01*
X125653286Y-84400152D02*
X125729477Y-84438247D01*
X125729477Y-84438247D02*
X125996143Y-84438247D01*
X125272334Y-84323961D02*
X125081858Y-84857295D01*
X124891381Y-84323961D02*
X125081858Y-84857295D01*
X125081858Y-84857295D02*
X125158048Y-85047771D01*
X125158048Y-85047771D02*
X125196143Y-85085866D01*
X125196143Y-85085866D02*
X125272334Y-85123961D01*
X123977095Y-84323961D02*
X123977095Y-85009676D01*
X123977095Y-85009676D02*
X124015191Y-85085866D01*
X124015191Y-85085866D02*
X124091381Y-85123961D01*
X124091381Y-85123961D02*
X124129476Y-85123961D01*
X123977095Y-84057295D02*
X124015191Y-84095390D01*
X124015191Y-84095390D02*
X123977095Y-84133485D01*
X123977095Y-84133485D02*
X123939000Y-84095390D01*
X123939000Y-84095390D02*
X123977095Y-84057295D01*
X123977095Y-84057295D02*
X123977095Y-84133485D01*
X123481858Y-84857295D02*
X123558048Y-84819200D01*
X123558048Y-84819200D02*
X123596143Y-84781104D01*
X123596143Y-84781104D02*
X123634239Y-84704914D01*
X123634239Y-84704914D02*
X123634239Y-84476342D01*
X123634239Y-84476342D02*
X123596143Y-84400152D01*
X123596143Y-84400152D02*
X123558048Y-84362057D01*
X123558048Y-84362057D02*
X123481858Y-84323961D01*
X123481858Y-84323961D02*
X123367572Y-84323961D01*
X123367572Y-84323961D02*
X123291381Y-84362057D01*
X123291381Y-84362057D02*
X123253286Y-84400152D01*
X123253286Y-84400152D02*
X123215191Y-84476342D01*
X123215191Y-84476342D02*
X123215191Y-84704914D01*
X123215191Y-84704914D02*
X123253286Y-84781104D01*
X123253286Y-84781104D02*
X123291381Y-84819200D01*
X123291381Y-84819200D02*
X123367572Y-84857295D01*
X123367572Y-84857295D02*
X123481858Y-84857295D01*
X122910429Y-84819200D02*
X122834238Y-84857295D01*
X122834238Y-84857295D02*
X122681857Y-84857295D01*
X122681857Y-84857295D02*
X122605667Y-84819200D01*
X122605667Y-84819200D02*
X122567571Y-84743009D01*
X122567571Y-84743009D02*
X122567571Y-84704914D01*
X122567571Y-84704914D02*
X122605667Y-84628723D01*
X122605667Y-84628723D02*
X122681857Y-84590628D01*
X122681857Y-84590628D02*
X122796143Y-84590628D01*
X122796143Y-84590628D02*
X122872333Y-84552533D01*
X122872333Y-84552533D02*
X122910429Y-84476342D01*
X122910429Y-84476342D02*
X122910429Y-84438247D01*
X122910429Y-84438247D02*
X122872333Y-84362057D01*
X122872333Y-84362057D02*
X122796143Y-84323961D01*
X122796143Y-84323961D02*
X122681857Y-84323961D01*
X122681857Y-84323961D02*
X122605667Y-84362057D01*
X122224714Y-84857295D02*
X122224714Y-84057295D01*
X121881857Y-84857295D02*
X121881857Y-84438247D01*
X121881857Y-84438247D02*
X121919952Y-84362057D01*
X121919952Y-84362057D02*
X121996143Y-84323961D01*
X121996143Y-84323961D02*
X122110429Y-84323961D01*
X122110429Y-84323961D02*
X122186619Y-84362057D01*
X122186619Y-84362057D02*
X122224714Y-84400152D01*
X121500904Y-84857295D02*
X121500904Y-84323961D01*
X121500904Y-84400152D02*
X121462809Y-84362057D01*
X121462809Y-84362057D02*
X121386619Y-84323961D01*
X121386619Y-84323961D02*
X121272333Y-84323961D01*
X121272333Y-84323961D02*
X121196142Y-84362057D01*
X121196142Y-84362057D02*
X121158047Y-84438247D01*
X121158047Y-84438247D02*
X121158047Y-84857295D01*
X121158047Y-84438247D02*
X121119952Y-84362057D01*
X121119952Y-84362057D02*
X121043761Y-84323961D01*
X121043761Y-84323961D02*
X120929476Y-84323961D01*
X120929476Y-84323961D02*
X120853285Y-84362057D01*
X120853285Y-84362057D02*
X120815190Y-84438247D01*
X120815190Y-84438247D02*
X120815190Y-84857295D01*
X120091380Y-84857295D02*
X120091380Y-84438247D01*
X120091380Y-84438247D02*
X120129475Y-84362057D01*
X120129475Y-84362057D02*
X120205666Y-84323961D01*
X120205666Y-84323961D02*
X120358047Y-84323961D01*
X120358047Y-84323961D02*
X120434237Y-84362057D01*
X120091380Y-84819200D02*
X120167571Y-84857295D01*
X120167571Y-84857295D02*
X120358047Y-84857295D01*
X120358047Y-84857295D02*
X120434237Y-84819200D01*
X120434237Y-84819200D02*
X120472333Y-84743009D01*
X120472333Y-84743009D02*
X120472333Y-84666819D01*
X120472333Y-84666819D02*
X120434237Y-84590628D01*
X120434237Y-84590628D02*
X120358047Y-84552533D01*
X120358047Y-84552533D02*
X120167571Y-84552533D01*
X120167571Y-84552533D02*
X120091380Y-84514438D01*
X119710427Y-84323961D02*
X119710427Y-84857295D01*
X119710427Y-84400152D02*
X119672332Y-84362057D01*
X119672332Y-84362057D02*
X119596142Y-84323961D01*
X119596142Y-84323961D02*
X119481856Y-84323961D01*
X119481856Y-84323961D02*
X119405665Y-84362057D01*
X119405665Y-84362057D02*
X119367570Y-84438247D01*
X119367570Y-84438247D02*
X119367570Y-84857295D01*
X118567570Y-84857295D02*
X119024713Y-84857295D01*
X118796141Y-84857295D02*
X118796141Y-84057295D01*
X118796141Y-84057295D02*
X118872332Y-84171580D01*
X118872332Y-84171580D02*
X118948522Y-84247771D01*
X118948522Y-84247771D02*
X119024713Y-84285866D01*
X118186617Y-84857295D02*
X118034236Y-84857295D01*
X118034236Y-84857295D02*
X117958046Y-84819200D01*
X117958046Y-84819200D02*
X117919950Y-84781104D01*
X117919950Y-84781104D02*
X117843760Y-84666819D01*
X117843760Y-84666819D02*
X117805665Y-84514438D01*
X117805665Y-84514438D02*
X117805665Y-84209676D01*
X117805665Y-84209676D02*
X117843760Y-84133485D01*
X117843760Y-84133485D02*
X117881855Y-84095390D01*
X117881855Y-84095390D02*
X117958046Y-84057295D01*
X117958046Y-84057295D02*
X118110427Y-84057295D01*
X118110427Y-84057295D02*
X118186617Y-84095390D01*
X118186617Y-84095390D02*
X118224712Y-84133485D01*
X118224712Y-84133485D02*
X118262808Y-84209676D01*
X118262808Y-84209676D02*
X118262808Y-84400152D01*
X118262808Y-84400152D02*
X118224712Y-84476342D01*
X118224712Y-84476342D02*
X118186617Y-84514438D01*
X118186617Y-84514438D02*
X118110427Y-84552533D01*
X118110427Y-84552533D02*
X117958046Y-84552533D01*
X117958046Y-84552533D02*
X117881855Y-84514438D01*
X117881855Y-84514438D02*
X117843760Y-84476342D01*
X117843760Y-84476342D02*
X117805665Y-84400152D01*
X117119950Y-84057295D02*
X117272331Y-84057295D01*
X117272331Y-84057295D02*
X117348522Y-84095390D01*
X117348522Y-84095390D02*
X117386617Y-84133485D01*
X117386617Y-84133485D02*
X117462807Y-84247771D01*
X117462807Y-84247771D02*
X117500903Y-84400152D01*
X117500903Y-84400152D02*
X117500903Y-84704914D01*
X117500903Y-84704914D02*
X117462807Y-84781104D01*
X117462807Y-84781104D02*
X117424712Y-84819200D01*
X117424712Y-84819200D02*
X117348522Y-84857295D01*
X117348522Y-84857295D02*
X117196141Y-84857295D01*
X117196141Y-84857295D02*
X117119950Y-84819200D01*
X117119950Y-84819200D02*
X117081855Y-84781104D01*
X117081855Y-84781104D02*
X117043760Y-84704914D01*
X117043760Y-84704914D02*
X117043760Y-84514438D01*
X117043760Y-84514438D02*
X117081855Y-84438247D01*
X117081855Y-84438247D02*
X117119950Y-84400152D01*
X117119950Y-84400152D02*
X117196141Y-84362057D01*
X117196141Y-84362057D02*
X117348522Y-84362057D01*
X117348522Y-84362057D02*
X117424712Y-84400152D01*
X117424712Y-84400152D02*
X117462807Y-84438247D01*
X117462807Y-84438247D02*
X117500903Y-84514438D01*
M02*
